<svg width="16" height="16" viewBox="0 0 16 16" fill="none" xmlns="http://www.w3.org/2000/svg">
<g clip-path="url(#clip0_2507_2889)">
<path d="M10.6666 5.33337V3.33337L12.6666 1.33337L13.3333 2.66671L14.6666 3.33337L12.6666 5.33337H10.6666ZM10.6666 5.33337L7.99996 8.00001M14.6666 8.00004C14.6666 11.6819 11.6819 14.6667 7.99998 14.6667C4.31808 14.6667 1.33331 11.6819 1.33331 8.00004C1.33331 4.31814 4.31808 1.33337 7.99998 1.33337M11.3333 8.00004C11.3333 9.84099 9.84093 11.3334 7.99998 11.3334C6.15903 11.3334 4.66665 9.84099 4.66665 8.00004C4.66665 6.15909 6.15903 4.66671 7.99998 4.66671" stroke="#2C2A2A" stroke-width="1.2" stroke-linecap="round" stroke-linejoin="round"/>
</g>
<defs>
<clipPath id="clip0_2507_2889">
<rect width="16" height="16" fill="white"/>
</clipPath>
</defs>
</svg>
