<svg width="16" height="16" viewBox="0 0 16 16" fill="none" xmlns="http://www.w3.org/2000/svg">
<path d="M10.6667 12L12 13.3334L14.6667 10.6667M14.6667 6.66671H1.33333M14.6667 8.00004V5.46671C14.6667 4.71997 14.6667 4.3466 14.5213 4.06139C14.3935 3.81051 14.1895 3.60653 13.9387 3.4787C13.6534 3.33337 13.2801 3.33337 12.5333 3.33337H3.46667C2.71993 3.33337 2.34656 3.33337 2.06134 3.4787C1.81046 3.60653 1.60649 3.8105 1.47866 4.06139C1.33333 4.3466 1.33333 4.71997 1.33333 5.46671V10.5334C1.33333 11.2801 1.33333 11.6535 1.47866 11.9387C1.60649 12.1896 1.81046 12.3936 2.06134 12.5214C2.34656 12.6667 2.71993 12.6667 3.46667 12.6667H8" stroke="black" stroke-width="1.2" stroke-linecap="round" stroke-linejoin="round"/>
</svg>
