<svg width="20" height="20" viewBox="0 0 20 20" fill="none" xmlns="http://www.w3.org/2000/svg">
<path d="M11.6667 17.5H8.33336M15 6.66663C15 5.34054 14.4732 4.06877 13.5356 3.13109C12.5979 2.19341 11.3261 1.66663 10 1.66663C8.67394 1.66663 7.40217 2.19341 6.46449 3.13109C5.52681 4.06877 5.00003 5.34054 5.00003 6.66663C5.00003 9.24178 4.35042 11.0049 3.62475 12.1711C3.01263 13.1549 2.70657 13.6467 2.7178 13.7839C2.73022 13.9359 2.76241 13.9938 2.88484 14.0846C2.99541 14.1666 3.49385 14.1666 4.49074 14.1666H15.5093C16.5062 14.1666 17.0046 14.1666 17.1152 14.0846C17.2376 13.9938 17.2698 13.9359 17.2823 13.7839C17.2935 13.6467 16.9874 13.1549 16.3753 12.1711C15.6496 11.0049 15 9.24178 15 6.66663Z" stroke="black" stroke-width="1.66667" stroke-linecap="round" stroke-linejoin="round"/>
</svg>
