<svg width="24" height="25" viewBox="0 0 24 25" fill="none" xmlns="http://www.w3.org/2000/svg">
<path fill-rule="evenodd" clip-rule="evenodd" d="M14.995 11.3537C15.1825 11.5412 15.2878 11.7955 15.2878 12.0607C15.2878 12.3259 15.1825 12.5802 14.995 12.7677L10.402 17.3607C10.2157 17.5433 9.96491 17.6449 9.70409 17.6436C9.44326 17.6423 9.19349 17.5381 9.00905 17.3537C8.82461 17.1692 8.72042 16.9195 8.7191 16.6586C8.71778 16.3978 8.81945 16.147 9.00201 15.9607L12.902 12.0607L9.00201 8.16071C8.81945 7.97442 8.71778 7.72361 8.7191 7.46278C8.72042 7.20195 8.82461 6.95218 9.00905 6.76775C9.19349 6.58331 9.44326 6.47911 9.70409 6.4778C9.96491 6.47648 10.2157 6.57815 10.402 6.76071L14.995 11.3537Z" fill="#2C2A2A"/>
</svg>
