<svg width="24" height="25" viewBox="0 0 24 25" fill="none" xmlns="http://www.w3.org/2000/svg">
<path fill-rule="evenodd" clip-rule="evenodd" d="M9.00501 11.3537L13.598 6.76069C13.6896 6.66724 13.7988 6.59287 13.9193 6.54188C14.0398 6.49089 14.1692 6.4643 14.3001 6.46364C14.4309 6.46297 14.5606 6.48826 14.6816 6.53803C14.8026 6.5878 14.9126 6.66106 15.0051 6.75359C15.0976 6.84611 15.1709 6.95606 15.2207 7.07708C15.2704 7.19809 15.2957 7.32777 15.2951 7.45862C15.2944 7.58947 15.2678 7.71889 15.2168 7.8394C15.1658 7.95991 15.0915 8.06911 14.998 8.16069L11.098 12.0607L14.998 15.9607C15.1806 16.147 15.2822 16.3978 15.2809 16.6586C15.2796 16.9195 15.1754 17.1692 14.991 17.3537C14.8065 17.5381 14.5568 17.6423 14.2959 17.6436C14.0351 17.6449 13.7843 17.5433 13.598 17.3607L9.00501 12.7687C8.81753 12.5812 8.71222 12.3269 8.71222 12.0617C8.71222 11.7965 8.81753 11.5422 9.00501 11.3547V11.3537Z" fill="#2C2A2A"/>
</svg>
