<svg width="16" height="16" viewBox="0 0 16 16" fill="none" xmlns="http://www.w3.org/2000/svg">
<path d="M10.6666 12L12 13.3334L14.6666 10.6667M14.6666 6.66671H1.33331M14.6666 8.00004V5.46671C14.6666 4.71997 14.6666 4.3466 14.5213 4.06139C14.3935 3.81051 14.1895 3.60653 13.9386 3.4787C13.6534 3.33337 13.28 3.33337 12.5333 3.33337H3.46665C2.71991 3.33337 2.34654 3.33337 2.06133 3.4787C1.81044 3.60653 1.60647 3.8105 1.47864 4.06139C1.33331 4.3466 1.33331 4.71997 1.33331 5.46671V10.5334C1.33331 11.2801 1.33331 11.6535 1.47864 11.9387C1.60647 12.1896 1.81044 12.3936 2.06133 12.5214C2.34654 12.6667 2.71991 12.6667 3.46665 12.6667H7.99998" stroke="#2C2A2A" stroke-linecap="round" stroke-linejoin="round"/>
</svg>
