<svg width="16" height="16" viewBox="0 0 16 16" fill="none" xmlns="http://www.w3.org/2000/svg">
<g clip-path="url(#clip0_2507_2885)">
<path d="M5.99998 6.00004H6.00665M9.99998 10H10.0066M10.6666 5.33337L5.33331 10.6667M6.13458 13.734C6.35308 13.7051 6.5738 13.7643 6.74786 13.8984L7.55002 14.5139C7.81518 14.7176 8.18404 14.7176 8.44846 14.5139L9.28098 13.8747C9.43653 13.7554 9.63281 13.7028 9.82686 13.7288L10.8683 13.8658C11.1993 13.9095 11.5186 13.7251 11.6467 13.4162L12.0474 12.4473C12.1222 12.2658 12.2659 12.1222 12.4474 12.0473L13.4162 11.6466C13.7251 11.5192 13.9095 11.1992 13.8658 10.8681L13.7339 9.86444C13.7051 9.64592 13.7643 9.42519 13.8984 9.25112L14.5139 8.44892C14.7176 8.18374 14.7176 7.81486 14.5139 7.55042L13.8747 6.71786C13.7554 6.5623 13.7028 6.36601 13.7288 6.17194L13.8658 5.13049C13.9095 4.79939 13.7251 4.48014 13.4162 4.35199L12.4474 3.95126C12.2659 3.87645 12.1222 3.73275 12.0474 3.55128L11.6467 2.58241C11.5193 2.27353 11.1993 2.08909 10.8683 2.1328L9.82686 2.26983C9.63281 2.2965 9.43653 2.2439 9.28173 2.12539L8.4492 1.48615C8.18404 1.28245 7.81518 1.28245 7.55076 1.48615L6.71824 2.12539C6.56269 2.2439 6.36641 2.2965 6.17235 2.27131L5.13096 2.13428C4.79988 2.09058 4.48064 2.27501 4.35251 2.5839L3.95254 3.55276C3.87699 3.73349 3.7333 3.87719 3.55257 3.95275L2.58376 4.35274C2.2749 4.48088 2.09047 4.80013 2.13417 5.13123L2.2712 6.17269C2.29638 6.36675 2.24379 6.56304 2.12528 6.71786L1.48608 7.55042C1.28239 7.8156 1.28239 8.18448 1.48608 8.44892L2.12528 9.28149C2.24453 9.43704 2.29712 9.63333 2.2712 9.8274L2.13417 10.8689C2.09047 11.2 2.2749 11.5192 2.58376 11.6473L3.55257 12.0481C3.73404 12.1229 3.87773 12.2666 3.95254 12.4481L4.35325 13.4169C4.48064 13.7258 4.80062 13.9103 5.1317 13.8665L6.13458 13.734ZM6.33331 6.00004C6.33331 6.18414 6.18407 6.33338 5.99998 6.33338C5.81588 6.33338 5.66665 6.18414 5.66665 6.00004C5.66665 5.81595 5.81588 5.66671 5.99998 5.66671C6.18407 5.66671 6.33331 5.81595 6.33331 6.00004ZM10.3333 10C10.3333 10.1841 10.1841 10.3334 9.99998 10.3334C9.81588 10.3334 9.66665 10.1841 9.66665 10C9.66665 9.81595 9.81588 9.66671 9.99998 9.66671C10.1841 9.66671 10.3333 9.81595 10.3333 10Z" stroke="#2C2A2A" stroke-linecap="round" stroke-linejoin="round"/>
</g>
<defs>
<clipPath id="clip0_2507_2885">
<rect width="16" height="16" fill="white"/>
</clipPath>
</defs>
</svg>
