<svg width="24" height="25" viewBox="0 0 24 25" fill="none" xmlns="http://www.w3.org/2000/svg">
<path d="M14.823 16.2417C13.7124 17.0837 12.3236 17.4726 10.9373 17.33C9.55092 17.1874 8.27042 16.5238 7.35456 15.4733C6.4387 14.4228 5.95578 13.0638 6.0034 11.671C6.05102 10.2781 6.62563 8.95527 7.6111 7.9698C8.59657 6.98433 9.9194 6.40972 11.3123 6.3621C12.7051 6.31448 14.0641 6.7974 15.1146 7.71326C16.165 8.62913 16.8287 9.90963 16.9713 11.296C17.1139 12.6823 16.725 14.0711 15.883 15.1817L18.53 17.8287C18.823 18.1217 19.06 18.4187 18.53 18.8887C18 19.3587 17.763 19.1817 17.47 18.8887L14.823 16.2417ZM11.5 15.8587C12.5609 15.8587 13.5783 15.4373 14.3284 14.6871C15.0786 13.937 15.5 12.9196 15.5 11.8587C15.5 10.7978 15.0786 9.78041 14.3284 9.03027C13.5783 8.28012 12.5609 7.85869 11.5 7.85869C10.4391 7.85869 9.42171 8.28012 8.67156 9.03027C7.92142 9.78041 7.49999 10.7978 7.49999 11.8587C7.49999 12.9196 7.92142 13.937 8.67156 14.6871C9.42171 15.4373 10.4391 15.8587 11.5 15.8587Z" fill="#2C2A2A"/>
</svg>
