<svg width="17" height="16" viewBox="0 0 17 16" fill="none" xmlns="http://www.w3.org/2000/svg">
<path d="M11.1664 5.33333C11.1664 6.04058 10.8854 6.71885 10.3853 7.21895C9.88524 7.71905 9.20696 8 8.49972 8C7.79247 8 7.11419 7.71905 6.6141 7.21895C6.114 6.71885 5.83305 6.04058 5.83305 5.33333M2.92186 4.93426L2.45519 10.5343C2.35494 11.7373 2.30482 12.3388 2.50817 12.8028C2.68684 13.2105 2.9964 13.5469 3.38784 13.7588C3.83336 14 4.43696 14 5.64414 14H11.3553C12.5625 14 13.1661 14 13.6116 13.7588C14.003 13.5469 14.3126 13.2105 14.4913 12.8028C14.6946 12.3388 14.6445 11.7373 14.5442 10.5343L14.0776 4.93426C13.9913 3.89917 13.9482 3.38162 13.719 2.9899C13.5171 2.64496 13.2166 2.3684 12.856 2.1959C12.4466 2 11.9273 2 10.8886 2L6.11081 2C5.07213 2 4.55279 2 4.14339 2.1959C3.78288 2.3684 3.48231 2.64496 3.28047 2.9899C3.05125 3.38162 3.00812 3.89917 2.92186 4.93426Z" stroke="black" stroke-width="1.2" stroke-linecap="round" stroke-linejoin="round"/>
</svg>
