<svg width="16" height="16" viewBox="0 0 16 16" fill="none" xmlns="http://www.w3.org/2000/svg">
<g clip-path="url(#clip0_2507_2901)">
<path d="M7.9998 9.99992C9.10436 9.99992 9.9998 9.10449 9.9998 7.99992C9.9998 6.89535 9.10436 5.99992 7.9998 5.99992C6.89523 5.99992 5.9998 6.89535 5.9998 7.99992C5.9998 9.10449 6.89523 9.99992 7.9998 9.99992Z" stroke="#2C2A2A" stroke-linecap="round" stroke-linejoin="round"/>
<path d="M12.4846 9.8181C12.404 10.0009 12.3799 10.2037 12.4155 10.4003C12.4512 10.5969 12.5449 10.7783 12.6846 10.9211L12.721 10.9575C12.8337 11.0701 12.9231 11.2037 12.9841 11.3509C13.0451 11.498 13.0765 11.6558 13.0765 11.8151C13.0765 11.9744 13.0451 12.1321 12.9841 12.2792C12.9231 12.4264 12.8337 12.5601 12.721 12.6726C12.6084 12.7853 12.4748 12.8747 12.3276 12.9357C12.1805 12.9967 12.0227 13.0281 11.8634 13.0281C11.7041 13.0281 11.5464 12.9967 11.3993 12.9357C11.2521 12.8747 11.1184 12.7853 11.0059 12.6726L10.9695 12.6363C10.8267 12.4966 10.6452 12.4028 10.4486 12.3672C10.252 12.3315 10.0493 12.3556 9.86646 12.4363C9.68721 12.5131 9.53433 12.6407 9.42665 12.8033C9.31897 12.9659 9.26118 13.1564 9.2604 13.3514V13.4545C9.2604 13.7759 9.1327 14.0842 8.90538 14.3116C8.67806 14.5389 8.36975 14.6666 8.04828 14.6666C7.72681 14.6666 7.4185 14.5389 7.19118 14.3116C6.96386 14.0842 6.83616 13.7759 6.83616 13.4545V13.3999C6.83147 13.1993 6.76653 13.0048 6.6498 12.8416C6.53307 12.6783 6.36994 12.554 6.18161 12.4848C5.99882 12.4041 5.79604 12.38 5.59944 12.4157C5.40284 12.4513 5.22142 12.545 5.07858 12.6848L5.04222 12.7211C4.92965 12.8338 4.79596 12.9232 4.64881 12.9842C4.50167 13.0452 4.34394 13.0766 4.18464 13.0766C4.02535 13.0766 3.86762 13.0452 3.72047 12.9842C3.57333 12.9232 3.43964 12.8338 3.32707 12.7211C3.21437 12.6086 3.12497 12.4749 3.06397 12.3277C3.00297 12.1806 2.97157 12.0228 2.97157 11.8636C2.97157 11.7043 3.00297 11.5465 3.06397 11.3994C3.12497 11.2522 3.21437 11.1186 3.32707 11.006L3.36343 10.9696C3.50315 10.8268 3.59688 10.6454 3.63253 10.4488C3.66817 10.2522 3.64411 10.0494 3.56343 9.86658C3.48661 9.68733 3.35904 9.53445 3.19644 9.42677C3.03384 9.31909 2.8433 9.2613 2.64828 9.26052H2.54525C2.22378 9.26052 1.91547 9.13282 1.68815 8.9055C1.46084 8.67818 1.33313 8.36988 1.33313 8.0484C1.33313 7.72693 1.46084 7.41862 1.68815 7.1913C1.91547 6.96399 2.22378 6.83628 2.54525 6.83628H2.5998C2.8004 6.83159 2.99495 6.76666 3.15816 6.64992C3.32137 6.53319 3.44568 6.37006 3.51495 6.18174C3.59562 5.99894 3.61969 5.79616 3.58404 5.59956C3.54839 5.40296 3.45467 5.22154 3.31495 5.07871L3.27858 5.04234C3.16589 4.92977 3.07648 4.79609 3.01548 4.64894C2.95448 4.50179 2.92309 4.34406 2.92309 4.18477C2.92309 4.02548 2.95448 3.86775 3.01548 3.7206C3.07648 3.57345 3.16589 3.43976 3.27858 3.32719C3.39116 3.21449 3.52484 3.12509 3.67199 3.06409C3.81914 3.00309 3.97687 2.97169 4.13616 2.97169C4.29545 2.97169 4.45318 3.00309 4.60033 3.06409C4.74748 3.12509 4.88116 3.21449 4.99374 3.32719L5.0301 3.36355C5.17293 3.50327 5.35435 3.597 5.55095 3.63265C5.74756 3.6683 5.95033 3.64423 6.13313 3.56355H6.18161C6.36087 3.48673 6.51375 3.35916 6.62143 3.19656C6.72911 3.03396 6.7869 2.84343 6.78767 2.6484V2.54537C6.78767 2.2239 6.91538 1.91559 7.1427 1.68827C7.37001 1.46096 7.67832 1.33325 7.9998 1.33325C8.32127 1.33325 8.62958 1.46096 8.85689 1.68827C9.08421 1.91559 9.21192 2.2239 9.21192 2.54537V2.59992C9.21269 2.79494 9.27048 2.98548 9.37816 3.14808C9.48585 3.31068 9.63872 3.43824 9.81798 3.51507C10.0008 3.59575 10.2035 3.61981 10.4002 3.58416C10.5968 3.54852 10.7782 3.45479 10.921 3.31507L10.9574 3.27871C11.0699 3.16601 11.2036 3.0766 11.3508 3.0156C11.4979 2.9546 11.6557 2.92321 11.8149 2.92321C11.9742 2.92321 12.132 2.9546 12.2791 3.0156C12.4263 3.0766 12.5599 3.16601 12.6725 3.27871C12.7852 3.39128 12.8746 3.52496 12.9356 3.67211C12.9966 3.81926 13.028 3.97699 13.028 4.13628C13.028 4.29557 12.9966 4.4533 12.9356 4.60045C12.8746 4.7476 12.7852 4.88128 12.6725 4.99386L12.6362 5.03022C12.4964 5.17306 12.4027 5.35447 12.3671 5.55108C12.3314 5.74768 12.3555 5.95045 12.4362 6.13325V6.18174C12.513 6.36099 12.6405 6.51387 12.8031 6.62155C12.9657 6.72923 13.1563 6.78702 13.3513 6.7878H13.4543C13.7758 6.7878 14.0841 6.9155 14.3114 7.14282C14.5388 7.37014 14.6665 7.67844 14.6665 7.99992C14.6665 8.32139 14.5388 8.6297 14.3114 8.85702C14.0841 9.08433 13.7758 9.21204 13.4543 9.21204H13.3998C13.2048 9.21282 13.0142 9.2706 12.8516 9.37829C12.689 9.48597 12.5615 9.63885 12.4846 9.8181Z" stroke="#2C2A2A" stroke-linecap="round" stroke-linejoin="round"/>
</g>
<defs>
<clipPath id="clip0_2507_2901">
<rect width="16" height="16" fill="white"/>
</clipPath>
</defs>
</svg>
