<svg width="20" height="21" viewBox="0 0 20 21" fill="none" xmlns="http://www.w3.org/2000/svg">
<path d="M9.99999 11.1919C10.4602 11.1919 10.8333 10.8188 10.8333 10.3586C10.8333 9.89832 10.4602 9.52523 9.99999 9.52523C9.53975 9.52523 9.16666 9.89832 9.16666 10.3586C9.16666 10.8188 9.53975 11.1919 9.99999 11.1919Z" stroke="#2C2A2A" stroke-width="1.38889" stroke-linecap="round" stroke-linejoin="round"/>
<path d="M9.99999 5.35856C10.4602 5.35856 10.8333 4.98547 10.8333 4.52523C10.8333 4.06499 10.4602 3.69189 9.99999 3.69189C9.53975 3.69189 9.16666 4.06499 9.16666 4.52523C9.16666 4.98547 9.53975 5.35856 9.99999 5.35856Z" stroke="#2C2A2A" stroke-width="1.38889" stroke-linecap="round" stroke-linejoin="round"/>
<path d="M9.99999 17.0252C10.4602 17.0252 10.8333 16.6521 10.8333 16.1919C10.8333 15.7317 10.4602 15.3586 9.99999 15.3586C9.53975 15.3586 9.16666 15.7317 9.16666 16.1919C9.16666 16.6521 9.53975 17.0252 9.99999 17.0252Z" stroke="#2C2A2A" stroke-width="1.38889" stroke-linecap="round" stroke-linejoin="round"/>
</svg>
