<svg width="12" height="21" viewBox="0 0 12 21" fill="none" xmlns="http://www.w3.org/2000/svg">
<path d="M1.92868 15.426C2.42087 15.426 2.81735 15.0227 2.81735 14.5374C2.81735 14.0452 2.42087 13.6487 1.92868 13.6487C1.44333 13.6487 1.04001 14.0452 1.04001 14.5374C1.04001 15.0227 1.44333 15.426 1.92868 15.426ZM6.00093 15.426C6.49312 15.426 6.8896 15.0227 6.8896 14.5374C6.8896 14.0452 6.49312 13.6487 6.00093 13.6487C5.51558 13.6487 5.11226 14.0452 5.11226 14.5374C5.11226 15.0227 5.51558 15.426 6.00093 15.426ZM10.0732 15.426C10.5654 15.426 10.9619 15.0227 10.9619 14.5374C10.9619 14.0452 10.5654 13.6487 10.0732 13.6487C9.58783 13.6487 9.18451 14.0452 9.18451 14.5374C9.18451 15.0227 9.58783 15.426 10.0732 15.426Z" fill="#2C2A2A"/>
</svg>
