<svg width="17" height="16" viewBox="0 0 17 16" fill="none" xmlns="http://www.w3.org/2000/svg">
<path d="M15.1667 14V12.6667C15.1667 11.4241 14.3168 10.38 13.1667 10.084M10.8333 2.19384C11.8106 2.58943 12.5 3.54754 12.5 4.66667C12.5 5.78579 11.8106 6.7439 10.8333 7.13949M11.8333 14C11.8333 12.7575 11.8333 12.1362 11.6304 11.6462C11.3597 10.9928 10.8406 10.4736 10.1872 10.203C9.69711 10 9.07585 10 7.83334 10H5.83334C4.59083 10 3.96958 10 3.47952 10.203C2.82611 10.4736 2.30698 10.9928 2.03633 11.6462C1.83334 12.1362 1.83334 12.7575 1.83334 14M9.50001 4.66667C9.50001 6.13943 8.3061 7.33333 6.83334 7.33333C5.36058 7.33333 4.16668 6.13943 4.16668 4.66667C4.16668 3.19391 5.36058 2 6.83334 2C8.3061 2 9.50001 3.19391 9.50001 4.66667Z" stroke="black" stroke-width="1.2" stroke-linecap="round" stroke-linejoin="round"/>
</svg>
